<?xml version="1.0" standalone="no"?>
<!DOCTYPE svg PUBLIC "-//W3C//DTD SVG 20010904//EN"
 "http://www.w3.org/TR/2001/REC-SVG-20010904/DTD/svg10.dtd">
<svg version="1.0" xmlns="http://www.w3.org/2000/svg"
 width="512.000000pt" height="512.000000pt" viewBox="0 0 512.000000 512.000000"
 preserveAspectRatio="xMidYMid meet">

<g transform="translate(0.000000,512.000000) scale(0.100000,-0.100000)"
fill="#000000" stroke="none">
<path d="M1025 4971 c-185 -46 -421 -344 -529 -670 -73 -219 -100 -412 -99
-721 0 -249 16 -428 63 -705 29 -172 113 -537 129 -564 7 -11 14 -10 37 6 51
36 187 100 274 129 79 26 97 28 245 28 141 0 167 -2 219 -22 33 -12 61 -22 63
-22 1 0 3 20 3 44 0 74 20 196 47 281 46 149 162 351 262 458 l44 48 -26 77
c-40 115 -70 253 -132 607 -87 494 -115 607 -186 745 -111 215 -263 318 -414
281z"/>
<path d="M2580 3676 c-186 -72 -434 -247 -613 -435 -161 -169 -287 -373 -343
-557 -25 -81 -28 -103 -28 -244 0 -112 5 -167 16 -200 l15 -45 6 35 c3 19 13
85 22 145 44 284 152 485 300 554 103 48 277 36 496 -35 155 -50 263 -97 580
-250 398 -193 623 -261 661 -201 14 22 8 87 -13 150 -52 154 -160 337 -319
537 -100 126 -328 356 -425 428 -145 109 -271 151 -355 118z"/>
<path d="M1946 2712 c-71 -72 -112 -182 -146 -386 -11 -70 -46 -152 -74 -175
-14 -12 -14 -16 1 -45 29 -57 119 -179 234 -316 123 -147 159 -196 159 -216 0
-26 -51 -74 -79 -74 -67 0 -191 135 -367 400 -59 88 -109 160 -113 160 -3 -1
-17 -7 -31 -15 -14 -8 -34 -14 -45 -15 -39 -1 -126 -50 -173 -97 -62 -63 -117
-170 -149 -291 -21 -78 -26 -122 -27 -227 -1 -122 1 -133 26 -185 53 -107 354
-426 553 -585 117 -94 313 -220 440 -283 305 -152 567 -215 895 -214 312 0
598 65 896 202 119 55 212 111 375 226 80 57 159 108 175 115 16 6 94 15 174
19 213 13 297 47 345 143 28 57 31 107 11 182 -29 110 -89 185 -148 185 -17 0
-85 -18 -152 -39 -178 -57 -273 -74 -386 -69 -112 5 -157 22 -296 115 -170
114 -315 183 -739 350 -132 53 -280 116 -329 140 -403 202 -737 529 -937 919
l-58 112 -35 -36z m675 -1507 c135 -74 218 -114 329 -158 284 -113 642 -187
983 -203 114 -6 135 -9 155 -27 26 -24 30 -78 7 -100 -35 -35 -268 -33 -527 4
-311 44 -674 162 -991 320 -94 48 -117 69 -117 110 0 35 47 89 78 89 10 0 48
-16 83 -35z"/>
<path d="M1045 2320 c-221 -34 -471 -168 -660 -355 -293 -289 -370 -586 -230
-882 95 -202 296 -412 567 -593 177 -118 433 -242 546 -265 56 -11 120 3 138
30 23 34 10 64 -74 177 -381 507 -476 993 -277 1412 68 144 148 231 262 284
50 23 71 27 151 27 l94 0 -44 37 c-53 46 -136 91 -205 111 -68 20 -193 28
-268 17z"/>
</g>
</svg>
