<?xml version="1.0" standalone="no"?>
<!DOCTYPE svg PUBLIC "-//W3C//DTD SVG 20010904//EN"
 "http://www.w3.org/TR/2001/REC-SVG-20010904/DTD/svg10.dtd">
<svg version="1.0" xmlns="http://www.w3.org/2000/svg"
 width="512.000000pt" height="512.000000pt" viewBox="0 0 512.000000 512.000000"
 preserveAspectRatio="xMidYMid meet">

<g transform="translate(0.000000,512.000000) scale(0.100000,-0.100000)"
fill="#000000" stroke="none">
<path d="M1971 5109 c-206 -40 -383 -173 -472 -354 -53 -109 -70 -181 -70
-300 1 -145 34 -257 114 -375 17 -25 162 -178 322 -340 267 -269 294 -300 314
-353 48 -132 19 -271 -78 -368 -97 -97 -236 -126 -368 -78 -53 20 -83 47 -353
314 -347 344 -382 370 -541 415 -91 25 -246 28 -334 5 -224 -57 -407 -231
-475 -450 -45 -146 -35 -319 26 -455 l27 -60 558 0 559 0 0 -150 0 -150 -559
0 -558 0 -27 -60 c-140 -312 0 -700 309 -851 109 -53 181 -70 300 -70 145 1
256 34 375 114 25 17 178 162 340 322 270 267 300 294 353 314 132 48 271 19
368 -78 97 -97 126 -236 78 -368 -20 -53 -47 -84 -314 -353 -160 -162 -306
-317 -324 -343 -77 -114 -112 -228 -112 -372 0 -119 17 -192 70 -300 151 -309
539 -449 851 -309 l60 27 0 558 0 559 150 0 150 0 0 -559 0 -558 60 -27 c182
-82 405 -70 590 31 98 54 208 170 259 274 55 113 72 183 72 304 -1 145 -34
257 -114 375 -17 25 -162 178 -322 340 -267 269 -294 300 -314 353 -48 132
-19 271 78 368 97 97 236 126 368 78 53 -20 84 -47 353 -314 348 -344 382
-370 541 -415 91 -25 246 -28 334 -5 395 101 613 540 449 905 l-27 60 -558 0
-559 0 0 150 0 150 559 0 558 0 27 60 c140 312 0 699 -307 849 -110 55 -182
72 -302 72 -144 0 -258 -35 -372 -112 -26 -18 -181 -164 -343 -324 -269 -267
-300 -294 -353 -314 -132 -48 -271 -19 -368 78 -97 97 -126 236 -78 368 20 53
47 84 314 353 344 348 370 382 415 541 25 91 28 246 5 334 -57 224 -231 407
-450 475 -146 45 -319 35 -455 -26 l-60 -27 0 -558 0 -559 -150 0 -150 0 0
559 0 558 -60 27 c-111 50 -262 68 -379 45z"/>
</g>
</svg>
