<?xml version="1.0" standalone="no"?>
<!DOCTYPE svg PUBLIC "-//W3C//DTD SVG 20010904//EN"
 "http://www.w3.org/TR/2001/REC-SVG-20010904/DTD/svg10.dtd">
<svg version="1.0" xmlns="http://www.w3.org/2000/svg"
 width="512.000000pt" height="512.000000pt" viewBox="0 0 512.000000 512.000000"
 preserveAspectRatio="xMidYMid meet">

<g transform="translate(0.000000,512.000000) scale(0.100000,-0.100000)"
fill="#000000" stroke="none">
<path d="M2740 4624 c-177 -38 -348 -171 -429 -334 -40 -83 -70 -192 -71 -257
l0 -33 -272 0 c-316 0 -369 -8 -498 -71 -117 -58 -221 -162 -279 -279 -63
-129 -71 -182 -71 -497 l0 -273 -32 0 c-66 -1 -175 -31 -258 -71 -209 -104
-350 -332 -350 -569 0 -238 140 -464 351 -568 83 -41 191 -71 257 -72 l32 0 0
-272 c0 -316 8 -369 71 -498 58 -116 160 -219 279 -278 133 -67 173 -72 578
-72 l352 0 0 173 c0 263 31 358 155 483 74 75 124 104 220 129 105 27 222 12
327 -41 75 -38 172 -139 208 -216 42 -89 50 -146 50 -349 l0 -179 358 0 c324
0 366 2 436 20 181 46 335 169 415 331 66 133 71 174 71 577 l0 352 -188 0
c-204 0 -261 9 -354 56 -77 39 -162 126 -202 206 -107 212 -53 449 134 589
115 87 203 109 438 109 l172 0 0 353 c0 404 -5 444 -72 577 -59 119 -162 221
-278 279 -129 63 -182 71 -497 71 l-273 0 0 33 c-1 66 -31 175 -72 257 -129
257 -422 396 -708 334z"/>
</g>
</svg>
