<?xml version="1.0" standalone="no"?>
<!DOCTYPE svg PUBLIC "-//W3C//DTD SVG 20010904//EN"
 "http://www.w3.org/TR/2001/REC-SVG-20010904/DTD/svg10.dtd">
<svg version="1.0" xmlns="http://www.w3.org/2000/svg"
 width="512.000000pt" height="512.000000pt" viewBox="0 0 512.000000 512.000000"
 preserveAspectRatio="xMidYMid meet">

<g transform="translate(0.000000,512.000000) scale(0.100000,-0.100000)"
fill="#000000" stroke="none">
<path d="M1281 3916 c-1079 -1079 -1144 -1146 -1120 -1154 13 -6 527 -211
1142 -457 615 -246 1120 -445 1123 -443 2 3 3 723 2 1601 l-3 1597 -1144
-1144z"/>
<path d="M2750 3456 c0 -1282 3 -1607 13 -1603 6 3 523 202 1147 442 624 240
1141 440 1147 444 8 4 -414 433 -1147 1166 l-1160 1160 0 -1609z"/>
<path d="M1215 1271 c665 -666 1211 -1211 1212 -1211 2 0 3 328 3 728 l0 728
-1192 477 c-656 262 -1202 479 -1213 483 -11 4 524 -538 1190 -1205z"/>
<path d="M3923 1966 l-1173 -451 0 -730 0 -730 1180 1180 c649 649 1180 1181
1180 1182 0 6 -69 -20 -1187 -451z"/>
</g>
</svg>
