<?xml version="1.0" standalone="no"?>
<!DOCTYPE svg PUBLIC "-//W3C//DTD SVG 20010904//EN"
 "http://www.w3.org/TR/2001/REC-SVG-20010904/DTD/svg10.dtd">
<svg version="1.0" xmlns="http://www.w3.org/2000/svg"
 width="512.000000pt" height="512.000000pt" viewBox="0 0 512.000000 512.000000"
 preserveAspectRatio="xMidYMid meet">

<g transform="translate(0.000000,512.000000) scale(0.100000,-0.100000)"
fill="#000000" stroke="none">
<path d="M4385 4794 c-389 -41 -802 -170 -1260 -394 -581 -284 -1022 -631
-1348 -1059 l-62 -82 -180 -3 c-191 -3 -279 -16 -409 -62 -378 -131 -661 -508
-781 -1039 -14 -60 -25 -123 -25 -138 0 -41 49 -87 92 -87 19 0 218 20 442 45
225 25 416 45 426 45 15 0 18 -14 24 -97 12 -163 7 -155 220 -371 105 -107
209 -203 230 -214 27 -14 75 -24 150 -31 61 -5 112 -11 114 -13 2 -1 -18 -200
-44 -442 -35 -322 -46 -448 -39 -468 6 -16 25 -37 43 -47 32 -19 36 -19 120
-2 509 99 876 341 1051 692 77 154 119 379 109 583 l-5 99 121 93 c153 117
414 377 538 533 196 248 333 467 492 785 240 482 374 932 393 1320 6 131 -9
285 -31 315 -6 9 -29 20 -51 26 -45 10 -269 19 -330 13z m-990 -1049 c256 -67
415 -329 350 -580 -50 -190 -207 -330 -401 -358 -329 -48 -612 266 -529 586
67 258 329 417 580 352z"/>
<path d="M1011 1744 c-117 -31 -235 -106 -302 -190 -83 -105 -153 -340 -193
-649 -19 -145 -40 -415 -32 -422 7 -8 362 23 496 43 239 35 451 100 552 167
95 65 180 194 214 325 29 117 -2 148 -89 88 -73 -50 -194 -80 -301 -74 -68 3
-91 10 -144 38 -118 62 -175 155 -180 291 -3 75 0 97 28 180 17 52 42 111 56
131 28 44 29 51 8 72 -19 19 -42 19 -113 0z"/>
</g>
</svg>
