<?xml version="1.0" standalone="no"?>
<!DOCTYPE svg PUBLIC "-//W3C//DTD SVG 20010904//EN"
 "http://www.w3.org/TR/2001/REC-SVG-20010904/DTD/svg10.dtd">
<svg version="1.0" xmlns="http://www.w3.org/2000/svg"
 width="512.000000pt" height="512.000000pt" viewBox="0 0 512.000000 512.000000"
 preserveAspectRatio="xMidYMid meet">

<g transform="translate(0.000000,512.000000) scale(0.100000,-0.100000)"
fill="#000000" stroke="none">
<path d="M1150 5087 c0 -37 51 -291 60 -301 21 -21 376 -27 368 -5 -8 22 -401
329 -422 329 -3 0 -6 -10 -6 -23z"/>
<path d="M1660 4598 c-30 -5 -133 -10 -227 -11 -95 -1 -173 -4 -173 -8 0 -25
125 -357 140 -373 9 -9 57 23 220 150 58 45 136 99 173 119 l69 38 -48 48
c-52 53 -56 54 -154 37z"/>
<path d="M2034 4375 c-88 -19 -185 -72 -304 -165 -292 -230 -508 -332 -710
-333 -47 0 -96 3 -110 7 -45 13 101 -118 169 -152 89 -44 197 -66 290 -59 126
10 232 55 366 154 157 117 275 172 407 193 43 7 98 10 124 7 45 -5 46 -4 61
32 18 42 96 166 125 198 l20 21 -38 24 c-126 78 -263 103 -400 73z"/>
<path d="M2790 4324 c-82 -55 -209 -190 -262 -280 -101 -169 -141 -365 -118
-568 12 -105 12 -117 -4 -141 -34 -52 -98 -57 -139 -11 l-20 22 -66 -44 c-270
-181 -570 -233 -906 -156 l-70 17 -115 -84 c-132 -96 -286 -191 -465 -285
-141 -74 -202 -131 -267 -248 -136 -245 -166 -525 -77 -712 34 -72 119 -162
179 -189 39 -17 43 -18 94 -2 106 34 219 135 296 267 45 77 71 100 113 100 37
0 87 -49 87 -85 0 -59 -100 -214 -197 -307 l-60 -57 36 -6 c55 -9 169 13 224
43 31 16 90 70 156 141 124 134 216 199 335 237 71 23 105 27 288 35 232 9
332 20 439 50 139 39 232 97 304 194 51 68 82 142 110 260 27 112 44 135 104
135 42 0 77 -26 87 -64 13 -53 -37 -229 -100 -351 -47 -91 -139 -195 -224
-252 -72 -47 -203 -97 -315 -119 l-86 -17 0 -141 c0 -269 -52 -433 -221 -692
-94 -145 -182 -319 -227 -451 -34 -99 -37 -117 -38 -223 0 -101 3 -121 24
-163 42 -87 146 -143 311 -168 105 -16 746 -5 896 16 125 17 263 54 330 88
l45 23 -41 50 c-48 57 -122 206 -140 279 -47 200 -27 400 65 641 l35 91 -36
78 c-20 43 -47 121 -61 174 -23 84 -26 117 -27 266 -1 235 23 355 116 574 44
103 78 226 78 279 0 26 -13 52 -49 101 -83 114 -171 273 -216 394 -13 34 -23
47 -37 47 -29 0 -78 54 -78 85 0 14 11 47 24 73 126 249 150 560 65 837 -21
71 -107 255 -118 255 -3 0 -31 -16 -61 -36z m-37 -414 c36 -29 40 -60 17 -147
-26 -100 -26 -182 0 -233 26 -52 25 -83 -4 -117 -30 -35 -92 -39 -126 -8 -52
47 -65 92 -65 220 0 141 23 245 63 282 31 29 80 30 115 3z m-1033 -990 c5 0
24 -13 42 -29 47 -40 78 -54 115 -53 40 2 57 10 112 57 54 44 91 46 132 6 55
-56 30 -126 -68 -189 -62 -40 -162 -66 -219 -57 -99 15 -234 112 -234 170 0
13 6 36 12 51 13 28 63 57 86 49 8 -3 18 -5 22 -5z m-1069 -460 c73 -20 139
-121 124 -190 -9 -42 -47 -72 -90 -72 -41 0 -82 31 -87 66 -2 11 -12 22 -23
24 -52 10 -85 74 -64 124 21 50 70 67 140 48z"/>
<path d="M3430 4049 c-55 -9 -177 -64 -215 -96 -18 -15 -20 -27 -17 -79 l4
-60 81 -12 c163 -24 276 -111 357 -275 34 -69 44 -106 65 -233 27 -164 60
-289 100 -379 32 -73 104 -174 147 -207 82 -62 209 -108 302 -108 l49 0 -46
31 c-105 70 -190 193 -229 336 -20 72 -22 103 -23 388 -2 338 -6 371 -58 469
-53 99 -192 189 -342 221 -78 16 -95 17 -175 4z"/>
<path d="M2163 3839 c-100 -17 -189 -61 -333 -168 -158 -118 -295 -171 -460
-178 -163 -8 -304 28 -434 111 l-57 36 17 -32 c9 -18 51 -67 93 -108 120 -119
260 -177 483 -201 218 -24 434 35 634 172 108 75 109 77 123 209 6 63 14 127
18 143 6 30 5 31 -84 16z"/>
<path d="M3181 3543 c-7 -43 -26 -118 -41 -167 l-29 -88 35 -99 c167 -481 498
-786 874 -806 96 -6 235 10 246 28 3 5 -17 9 -44 9 -110 0 -263 57 -371 138
-167 126 -278 364 -326 704 -33 227 -134 357 -281 358 l-50 0 -13 -77z"/>
<path d="M3411 2384 c-7 -26 -36 -106 -65 -178 -83 -203 -91 -247 -91 -476 1
-220 10 -271 72 -398 71 -145 207 -243 403 -292 121 -31 425 -39 559 -16 132
23 146 35 40 36 -106 0 -212 26 -310 75 -233 118 -349 291 -349 523 0 71 6
101 41 205 36 107 42 136 46 238 5 114 -3 159 -28 159 -20 0 -174 82 -237 126
-34 24 -64 44 -66 44 -2 0 -9 -21 -15 -46z"/>
<path d="M4240 2214 c-31 -8 -106 -15 -172 -15 l-118 -1 0 -48 c0 -90 -21
-205 -58 -310 -30 -87 -36 -119 -36 -190 -1 -77 2 -92 32 -152 84 -172 278
-266 528 -255 131 5 148 12 104 38 -51 32 -113 102 -143 163 -60 122 -70 260
-36 466 22 133 20 193 -7 273 -17 52 -15 51 -94 31z"/>
<path d="M3296 958 c-91 -305 -50 -535 129 -713 51 -51 94 -83 160 -116 162
-84 292 -116 510 -125 301 -14 552 47 689 167 26 23 45 43 43 45 -1 2 -48 -6
-102 -18 -74 -16 -137 -22 -245 -22 -134 -1 -151 1 -223 27 -234 82 -351 243
-390 536 l-12 95 -85 12 c-129 19 -281 78 -380 148 -25 18 -50 35 -57 39 -9 5
-20 -17 -37 -75z"/>
<path d="M4370 853 c-30 -7 -117 -18 -192 -25 -112 -10 -138 -15 -138 -28 1
-149 105 -347 210 -399 71 -36 181 -53 288 -45 l83 7 -44 46 c-91 95 -123 173
-140 342 l-12 115 -55 -13z"/>
</g>
</svg>
