<?xml version="1.0" standalone="no"?>
<!DOCTYPE svg PUBLIC "-//W3C//DTD SVG 20010904//EN"
 "http://www.w3.org/TR/2001/REC-SVG-20010904/DTD/svg10.dtd">
<svg version="1.0" xmlns="http://www.w3.org/2000/svg"
 width="512.000000pt" height="512.000000pt" viewBox="0 0 512.000000 512.000000"
 preserveAspectRatio="xMidYMid meet">

<g transform="translate(0.000000,512.000000) scale(0.100000,-0.100000)"
fill="#000000" stroke="none">
<path d="M2345 5049 c-585 -51 -1134 -307 -1550 -724 -703 -703 -922 -1750
-560 -2677 332 -849 1114 -1455 2021 -1567 552 -68 1123 55 1598 343 579 352
994 928 1141 1580 47 210 58 316 58 551 1 305 -30 507 -119 780 -361 1102
-1436 1814 -2589 1714z m1795 -1004 c9 -11 -50 -306 -300 -1477 -171 -805
-313 -1471 -316 -1480 -14 -48 -36 -35 -531 318 -268 191 -495 348 -504 348
-9 1 -138 -115 -287 -256 -175 -166 -279 -258 -292 -258 -27 0 -18 -23 -229
590 -98 287 -180 522 -182 524 -4 2 -953 293 -1006 308 -36 10 -53 43 -32 63
14 12 927 348 2559 940 520 189 977 354 1015 368 83 31 89 31 105 12z"/>
<path d="M2575 2980 c-473 -297 -864 -541 -869 -543 -5 -1 45 -177 110 -389
65 -212 120 -385 122 -383 2 2 15 110 28 241 14 131 26 239 27 240 4 2 1214
1079 1345 1197 79 72 146 136 149 144 6 16 -13 33 -37 32 -8 0 -402 -243 -875
-539z"/>
</g>
</svg>
