<?xml version="1.0" standalone="no"?>
<!DOCTYPE svg PUBLIC "-//W3C//DTD SVG 20010904//EN"
 "http://www.w3.org/TR/2001/REC-SVG-20010904/DTD/svg10.dtd">
<svg version="1.0" xmlns="http://www.w3.org/2000/svg"
 width="512.000000pt" height="512.000000pt" viewBox="0 0 512.000000 512.000000"
 preserveAspectRatio="xMidYMid meet">

<g transform="translate(0.000000,512.000000) scale(0.100000,-0.100000)"
fill="#000000" stroke="none">
<path d="M2370 5113 c-664 -63 -1202 -317 -1651 -780 -195 -201 -340 -410
-465 -668 -261 -541 -322 -1146 -174 -1735 59 -235 182 -525 306 -720 204
-321 503 -620 824 -824 100 -64 351 -186 475 -232 129 -47 369 -107 515 -129
485 -70 1003 9 1448 221 286 136 489 280 718 508 217 218 355 408 488 677 309
621 350 1331 115 1993 -47 133 -163 373 -235 486 -211 333 -537 653 -856 843
-413 246 -871 371 -1338 365 -74 0 -151 -3 -170 -5z m365 -513 c668 -63 1253
-432 1590 -1005 376 -638 376 -1431 1 -2069 -394 -670 -1152 -1070 -1909
-1008 -442 36 -809 183 -1153 459 -509 410 -799 1081 -746 1726 34 416 162
757 406 1086 418 560 1121 875 1811 811z"/>
<path d="M2447 4089 c-215 -23 -423 -119 -583 -271 -143 -136 -236 -287 -290
-473 -32 -112 -43 -280 -23 -352 17 -62 96 -143 155 -161 57 -17 137 -15 181
3 102 43 149 117 162 257 14 145 52 235 135 327 165 180 452 216 655 80 111
-74 196 -196 222 -319 16 -76 6 -212 -21 -283 -49 -131 -121 -206 -301 -317
-139 -86 -281 -246 -351 -396 -27 -57 -30 -73 -26 -138 4 -95 40 -157 116
-202 90 -55 173 -55 265 0 42 25 61 46 99 111 60 102 125 168 224 227 250 148
418 374 490 658 29 116 27 375 -4 490 -94 344 -370 627 -706 725 -75 21 -257
48 -305 44 -9 -1 -51 -5 -94 -10z"/>
<path d="M2498 1526 c-99 -27 -165 -96 -187 -198 -24 -106 32 -221 132 -272
238 -121 473 148 324 371 -55 82 -173 125 -269 99z"/>
</g>
</svg>
