<?xml version="1.0" standalone="no"?>
<!DOCTYPE svg PUBLIC "-//W3C//DTD SVG 20010904//EN"
 "http://www.w3.org/TR/2001/REC-SVG-20010904/DTD/svg10.dtd">
<svg version="1.0" xmlns="http://www.w3.org/2000/svg"
 width="512.000000pt" height="512.000000pt" viewBox="0 0 512.000000 512.000000"
 preserveAspectRatio="xMidYMid meet">

<g transform="translate(0.000000,512.000000) scale(0.100000,-0.100000)"
fill="#000000" stroke="none">
<path d="M2370 5113 c-379 -36 -661 -116 -980 -278 -378 -192 -718 -497 -965
-865 -162 -242 -312 -598 -369 -880 -43 -212 -51 -295 -51 -530 0 -312 34
-526 126 -805 53 -159 173 -417 255 -545 205 -322 503 -620 824 -824 100 -64
351 -186 475 -232 129 -47 369 -107 515 -129 485 -70 1003 9 1448 221 286 136
489 280 718 508 217 218 355 408 488 677 309 621 350 1331 115 1993 -47 133
-163 373 -235 486 -211 333 -537 653 -856 843 -413 246 -871 371 -1338 365
-74 0 -151 -3 -170 -5z m365 -513 c492 -46 926 -249 1271 -594 610 -610 772
-1520 411 -2309 -93 -201 -242 -412 -411 -582 -621 -624 -1557 -779 -2351
-390 -928 455 -1370 1542 -1025 2519 68 191 165 371 295 545 419 561 1120 875
1810 811z"/>
<path d="M1700 3567 c-49 -16 -133 -102 -148 -153 -18 -62 -15 -142 9 -194 15
-33 102 -127 327 -352 l307 -308 -307 -307 c-332 -333 -347 -353 -348 -452 0
-84 18 -130 75 -186 56 -57 102 -75 186 -75 99 1 119 16 452 348 l307 307 308
-307 c332 -332 352 -347 451 -348 84 0 130 18 186 75 57 56 75 102 75 186 -1
99 -16 119 -348 451 l-307 308 307 308 c332 332 347 352 348 451 0 84 -18 130
-75 186 -56 57 -102 75 -186 75 -99 -1 -119 -16 -451 -348 l-308 -307 -307
307 c-226 225 -320 312 -353 327 -50 23 -141 26 -200 8z"/>
</g>
</svg>
