<svg version="1.2" xmlns="http://www.w3.org/2000/svg" viewBox="0 0 512 512" width="512" height="512"><style></style><path  d="m237 0.7c-37.9 3.6-66.1 11.6-98 27.8-37.8 19.2-71.8 49.7-96.5 86.5-16.2 24.2-31.2 59.8-36.9 88-4.3 21.2-5.1 29.5-5.1 53 0 31.2 3.4 52.6 12.6 80.5 5.3 15.9 17.3 41.7 25.5 54.5 20.5 32.2 50.3 62 82.4 82.4 10 6.4 35.1 18.6 47.5 23.2 12.9 4.7 36.9 10.7 51.5 12.9 48.5 7 100.3-0.9 144.8-22.1 28.6-13.6 48.9-28 71.8-50.8 21.7-21.8 35.5-40.8 48.8-67.7 30.9-62.1 35-133.1 11.5-199.3-4.7-13.3-16.3-37.3-23.5-48.6-21.1-33.3-53.7-65.3-85.6-84.3-41.3-24.6-87.1-37.1-133.8-36.5-7.4 0-15.1 0.3-17 0.5zm36.5 51.3c49.2 4.6 92.6 24.9 127.1 59.4 61 61 77.2 152 41.1 230.9-9.3 20.1-24.2 41.2-41.1 58.2-62.1 62.4-155.7 77.9-235.1 39-92.8-45.5-137-154.2-102.5-251.9 6.8-19.1 16.5-37.1 29.5-54.5 41.9-56.1 112-87.5 181-81.1z"/><path  d="m247.9 129.3c-22.2 8.3-23.4 37.9-1.9 47.6 12.4 5.6 28.2-0.8 33.8-13.8 1.9-4.5 1.9-14.5 0-19.1-2.1-5-6.3-9.6-11.4-12.6-5.4-3.2-15-4.1-20.5-2.1z"/><path  d="m245.5 207.4c-2.8 1.2-6.5 4-8.4 6.1-6.9 7.9-6.6 3.9-6.9 77.9-0.2 46.2 0.1 68.6 0.8 72.3 1.4 6.6 5.9 12.8 12.5 16.8 4.3 2.6 5.7 3 12.4 3 6.5 0 8.3-0.4 12.2-2.7 5.3-3.1 9.4-7.6 11.8-12.8 1.4-3.1 1.6-11.5 1.6-73.5 0-77.5 0.4-73-6.6-81-4.6-5.2-11.9-8.5-18.9-8.5q-5.5 0-10.5 2.4z"/></svg>