<?xml version="1.0" standalone="no"?>
<!DOCTYPE svg PUBLIC "-//W3C//DTD SVG 20010904//EN"
 "http://www.w3.org/TR/2001/REC-SVG-20010904/DTD/svg10.dtd">
<svg version="1.0" xmlns="http://www.w3.org/2000/svg"
 width="512.000000pt" height="512.000000pt" viewBox="0 0 512.000000 512.000000"
 preserveAspectRatio="xMidYMid meet">

<g transform="translate(0.000000,512.000000) scale(0.100000,-0.100000)"
fill="#000000" stroke="none">
<path d="M2415 4984 c-225 -33 -386 -94 -565 -213 -102 -67 -246 -209 -316
-311 -57 -82 -1318 -2307 -1395 -2460 -55 -111 -92 -217 -116 -338 -25 -123
-24 -366 1 -487 94 -451 400 -815 816 -968 208 -77 92 -72 1720 -72 1372 0
1460 1 1538 18 257 57 450 162 633 346 241 241 368 528 385 866 11 215 -41
454 -139 645 -90 173 -1341 2378 -1391 2450 -28 41 -91 115 -141 165 -170 171
-383 286 -630 341 -68 15 -339 27 -400 18z m376 -544 c51 -17 120 -47 152 -67
71 -43 174 -137 221 -202 43 -59 1329 -2333 1371 -2426 51 -110 69 -194 68
-325 -1 -305 -162 -569 -428 -700 -163 -81 -39 -75 -1615 -75 -1576 0 -1452
-6 -1615 75 -196 97 -334 264 -401 485 -22 75 -27 110 -27 210 -1 136 16 218
68 330 43 93 1328 2367 1372 2427 56 77 167 173 251 216 143 73 228 93 383 87
86 -3 125 -10 200 -35z"/>
<path d="M2511 3449 c-101 -19 -179 -97 -201 -204 -7 -35 -10 -258 -8 -681 3
-588 4 -632 22 -672 23 -53 101 -124 154 -140 98 -30 206 0 271 73 69 79 66
43 69 739 2 433 -1 645 -8 682 -29 140 -159 228 -299 203z"/>
<path d="M2455 1346 c-94 -43 -148 -129 -148 -231 1 -99 43 -171 132 -223 39
-23 57 -27 121 -27 64 0 82 4 121 27 89 52 131 125 131 223 0 71 -17 117 -63
170 -72 82 -195 108 -294 61z"/>
</g>
</svg>
