<?xml version="1.0" standalone="no"?>
<!DOCTYPE svg PUBLIC "-//W3C//DTD SVG 20010904//EN"
 "http://www.w3.org/TR/2001/REC-SVG-20010904/DTD/svg10.dtd">
<svg version="1.0" xmlns="http://www.w3.org/2000/svg"
 width="512.000000pt" height="512.000000pt" viewBox="0 0 512.000000 512.000000"
 preserveAspectRatio="xMidYMid meet">

<g transform="translate(0.000000,512.000000) scale(0.100000,-0.100000)"
fill="currentColor" stroke="none">
<path d="M910 4674 c-177 -47 -335 -175 -415 -339 -70 -141 -66 -20 -63 -1801
l3 -1609 26 -67 c74 -190 207 -323 397 -397 l67 -26 1625 0 1625 0 70 22 c188
60 337 204 414 401 l26 67 0 1635 0 1635 -26 67 c-74 191 -206 323 -397 397
l-67 26 -1615 2 c-1384 2 -1623 0 -1670 -13z m3198 -416 c64 -16 134 -86 150
-150 17 -67 17 -3029 0 -3096 -16 -64 -86 -134 -150 -150 -67 -17 -3029 -17
-3096 0 -64 16 -134 86 -150 150 -9 35 -12 432 -12 1551 0 1695 -6 1574 76
1645 24 22 61 45 82 50 57 15 3040 15 3100 0z"/>
<path d="M1405 3821 c-74 -34 -125 -111 -125 -187 0 -97 -9 -87 499 -596 l476
-478 -476 -477 c-509 -512 -499 -500 -499 -599 1 -106 100 -204 206 -204 97 0
87 -9 597 499 l477 476 478 -476 c511 -509 499 -499 598 -499 106 1 204 100
204 206 0 97 9 87 -499 597 l-476 477 467 468 c494 494 507 510 508 600 0 112
-95 211 -204 212 -99 0 -87 10 -598 -499 l-478 -476 -477 476 c-409 406 -484
477 -519 487 -59 17 -113 14 -159 -7z"/>
</g>
</svg>
