<?xml version="1.0" standalone="no"?>
<!DOCTYPE svg PUBLIC "-//W3C//DTD SVG 20010904//EN"
 "http://www.w3.org/TR/2001/REC-SVG-20010904/DTD/svg10.dtd">
<svg version="1.0" xmlns="http://www.w3.org/2000/svg"
 width="512.000000pt" height="512.000000pt" viewBox="0 0 512.000000 512.000000"
 preserveAspectRatio="xMidYMid meet">
<metadata>
Created by potrace 1.16, written by Peter Selinger 2001-2019
</metadata>
<g transform="translate(0.000000,512.000000) scale(0.100000,-0.100000)"
fill="currentColor" stroke="none">
<path d="M955 4689 c-125 -21 -249 -86 -343 -180 -77 -77 -121 -148 -159 -254
l-28 -80 0 -1615 0 -1615 27 -76 c76 -214 227 -359 444 -426 56 -17 136 -18
1664 -18 1528 0 1608 1 1665 18 222 68 383 230 452 453 17 56 18 136 18 1664
0 1528 -1 1608 -18 1664 -67 216 -213 369 -422 443 l-80 28 -1585 1 c-872 1
-1607 -2 -1635 -7z m3173 -445 c49 -20 90 -60 113 -109 18 -38 19 -102 19
-1573 0 -1363 -2 -1537 -16 -1570 -20 -49 -60 -90 -109 -113 -38 -18 -102 -19
-1575 -19 -1473 0 -1537 1 -1575 19 -49 23 -89 64 -109 113 -14 33 -16 207
-16 1568 0 1361 2 1535 16 1568 20 49 60 90 109 113 38 18 102 19 1573 19
1363 0 1537 -2 1570 -16z"/>
<path d="M1415 2764 c-84 -31 -135 -108 -135 -204 0 -100 58 -181 149 -209 54
-16 2208 -16 2262 0 91 28 149 109 149 209 0 98 -51 174 -139 205 -64 22
-2224 22 -2286 -1z"/>
</g>
</svg>
