<?xml version="1.0" standalone="no"?>
<!DOCTYPE svg PUBLIC "-//W3C//DTD SVG 20010904//EN"
 "http://www.w3.org/TR/2001/REC-SVG-20010904/DTD/svg10.dtd">
<svg version="1.0" xmlns="http://www.w3.org/2000/svg"
 width="512.000000pt" height="512.000000pt" viewBox="0 0 512.000000 512.000000"
 preserveAspectRatio="xMidYMid meet">

<g transform="translate(0.000000,512.000000) scale(0.100000,-0.100000)"
fill="currentColor" stroke="none">
<path d="M340 4577 c-30 -7 -77 -23 -105 -37 -60 -29 -154 -120 -184 -178 -53
-104 -51 -26 -51 -1799 0 -1802 -4 -1681 58 -1746 49 -53 97 -70 176 -65 106
7 191 57 241 142 14 24 151 477 334 1106 333 1139 344 1171 437 1278 99 113
241 196 386 226 68 14 236 16 1464 16 l1387 0 -5 103 c-6 120 -27 182 -88 263
-48 63 -139 127 -214 149 -42 13 -177 15 -905 15 -588 0 -869 4 -896 11 -62
17 -94 47 -229 213 -159 195 -212 240 -346 288 l-65 23 -670 2 c-496 1 -684
-1 -725 -10z"/>
<path d="M1690 3300 c-149 -27 -273 -118 -340 -250 -16 -31 -160 -509 -335
-1110 -169 -580 -320 -1082 -336 -1115 -35 -77 -120 -170 -194 -214 -31 -19
-91 -45 -133 -57 l-77 -23 1884 0 c1345 -1 1903 2 1950 10 156 27 304 132 374
267 25 49 117 348 333 1087 275 940 298 1026 298 1095 0 126 -67 230 -183 287
l-56 28 -1570 1 c-863 1 -1590 -2 -1615 -6z"/>
</g>
</svg>
