<?xml version="1.0" standalone="no"?>
<!DOCTYPE svg PUBLIC "-//W3C//DTD SVG 20010904//EN"
 "http://www.w3.org/TR/2001/REC-SVG-20010904/DTD/svg10.dtd">
<svg version="1.0" xmlns="http://www.w3.org/2000/svg"
 width="512.000000pt" height="512.000000pt" viewBox="0 0 512.000000 512.000000"
 preserveAspectRatio="xMidYMid meet">
<metadata>
Created by potrace 1.16, written by Peter Selinger 2001-2019
</metadata>
<g transform="translate(0.000000,512.000000) scale(0.100000,-0.100000)"
fill="currentColor" stroke="none">
<path d="M435 5101 c-205 -60 -367 -225 -420 -428 -13 -50 -15 -326 -15 -2111
0 -2280 -5 -2102 67 -2246 47 -93 152 -199 248 -248 142 -73 -36 -68 2245 -68
2278 0 2100 -5 2244 67 96 48 201 153 249 249 72 144 67 -34 67 2244 0 2278 5
2100 -67 2244 -48 96 -153 201 -249 249 -144 72 35 67 -2250 66 -1931 0 -2063
-2 -2119 -18z m4170 -407 c46 -25 65 -45 91 -94 18 -34 19 -91 22 -1520 l2
-1485 -357 357 c-376 374 -428 417 -551 460 -57 19 -87 23 -197 23 -110 0
-140 -4 -197 -23 -101 -35 -180 -92 -321 -230 l-127 -126 -328 326 c-344 343
-398 388 -520 430 -57 19 -87 23 -197 23 -110 0 -140 -4 -197 -23 -130 -45
-165 -76 -761 -670 l-567 -567 2 1495 c3 1439 4 1496 22 1530 35 66 75 96 146
111 19 4 926 6 2015 5 l1980 -1 40 -21z m-2608 -2275 c15 -5 241 -222 500
-482 l473 -472 272 272 c150 150 286 277 301 282 36 14 108 14 144 0 15 -5
254 -236 531 -512 l503 -502 -3 -225 c-3 -195 -6 -230 -22 -260 -26 -49 -45
-69 -91 -94 l-40 -21 -2005 0 -2005 0 -40 21 c-46 25 -65 45 -91 94 -16 30
-19 65 -22 250 l-3 215 708 707 c389 389 722 714 738 722 35 18 111 21 152 5z"/>
<path d="M3075 4301 c-205 -60 -367 -225 -420 -428 -20 -75 -19 -229 1 -306
53 -206 225 -378 430 -431 79 -20 228 -21 307 0 208 54 377 223 431 431 21 78
21 228 0 306 -54 208 -223 377 -431 431 -82 21 -240 20 -318 -3z m253 -410
c67 -34 102 -93 102 -171 0 -111 -79 -190 -190 -190 -111 0 -190 79 -190 190
0 111 77 189 188 190 33 0 67 -7 90 -19z"/>
</g>
</svg>
