<?xml version="1.0" standalone="no"?>
<!DOCTYPE svg PUBLIC "-//W3C//DTD SVG 20010904//EN"
 "http://www.w3.org/TR/2001/REC-SVG-20010904/DTD/svg10.dtd">
<svg version="1.0" xmlns="http://www.w3.org/2000/svg"
 width="512.000000pt" height="512.000000pt" viewBox="0 0 512.000000 512.000000"
 preserveAspectRatio="xMidYMid meet">

<g transform="translate(0.000000,512.000000) scale(0.100000,-0.100000)"
fill="currentColor" stroke="none">
<path d="M2466 5110 c-111 -28 -225 -123 -274 -228 l-27 -57 -5 -930 -5 -930
-930 -5 -930 -5 -66 -32 c-82 -41 -150 -111 -192 -201 -29 -61 -32 -76 -32
-162 0 -86 3 -101 32 -162 42 -90 110 -160 192 -201 l66 -32 930 -5 930 -5 5
-930 5 -930 32 -66 c41 -82 111 -150 201 -192 61 -29 76 -32 163 -32 90 0 99
2 171 38 89 43 157 112 197 197 l26 55 5 930 5 930 930 5 930 5 66 32 c82 41
150 111 192 201 29 61 32 76 32 162 0 86 -3 101 -32 162 -42 90 -110 160 -192
201 l-66 32 -930 5 -930 5 -5 930 -5 930 -32 66 c-65 131 -196 218 -341 225
-42 2 -94 -1 -116 -6z"/>
</g>
</svg>
