<?xml version="1.0" standalone="no"?>
<!DOCTYPE svg PUBLIC "-//W3C//DTD SVG 20010904//EN"
 "http://www.w3.org/TR/2001/REC-SVG-20010904/DTD/svg10.dtd">
<svg version="1.0" xmlns="http://www.w3.org/2000/svg"
 width="512.000000pt" height="512.000000pt" viewBox="0 0 512.000000 512.000000"
 preserveAspectRatio="xMidYMid meet">

<g transform="translate(0.000000,512.000000) scale(0.100000,-0.100000)"
fill="#000000" stroke="none">
<path d="M2330 4629 c-473 -58 -885 -252 -1219 -574 -180 -174 -306 -346 -420
-576 -357 -719 -267 -1571 234 -2214 71 -91 239 -259 335 -336 219 -176 496
-313 773 -384 483 -123 983 -74 1425 140 403 195 731 509 932 890 37 70 42 86
38 131 -8 89 -68 144 -160 144 -56 0 -102 -28 -134 -83 -13 -23 -43 -73 -66
-112 -94 -159 -261 -352 -403 -465 -657 -522 -1570 -518 -2221 11 -110 89
-258 251 -335 367 -413 618 -411 1376 4 1992 97 143 304 350 448 447 325 220
690 326 1069 310 439 -19 831 -185 1142 -485 85 -82 213 -230 205 -238 -1 -2
-76 19 -165 46 -210 64 -244 68 -302 38 -108 -55 -118 -196 -19 -270 33 -25
712 -238 758 -238 49 0 121 38 143 75 26 45 238 725 238 763 0 139 -171 210
-269 111 -24 -23 -40 -60 -71 -162 -23 -73 -44 -140 -48 -150 -6 -15 -14 -9
-47 35 -64 84 -242 264 -334 337 -292 232 -610 374 -981 436 -113 19 -443 28
-550 14z"/>
</g>
</svg>
