<?xml version="1.0" standalone="no"?>
<!DOCTYPE svg PUBLIC "-//W3C//DTD SVG 20010904//EN"
 "http://www.w3.org/TR/2001/REC-SVG-20010904/DTD/svg10.dtd">
<svg version="1.0" xmlns="http://www.w3.org/2000/svg"
 width="512.000000pt" height="512.000000pt" viewBox="0 0 512.000000 512.000000"
 preserveAspectRatio="xMidYMid meet">
<metadata>
Created by potrace 1.16, written by Peter Selinger 2001-2019
</metadata>
<g transform="translate(0.000000,512.000000) scale(0.100000,-0.100000)"
fill="currentColor" stroke="none">
<path d="M2230 5104 c-735 -94 -1401 -510 -1812 -1132 -205 -311 -336 -653
-393 -1025 -19 -120 -14 -169 20 -237 51 -100 136 -149 256 -150 92 0 161 30
214 94 44 54 53 79 76 216 122 723 607 1310 1292 1564 355 132 786 154 1158
60 408 -102 758 -320 1042 -649 l61 -70 -250 -5 c-232 -5 -252 -7 -290 -27
-100 -53 -153 -132 -162 -239 -9 -115 48 -217 152 -272 l51 -27 600 0 600 0
66 32 c79 39 140 102 177 181 l27 57 3 598 c2 593 2 598 -19 647 -41 96 -154
170 -259 170 -106 0 -217 -73 -261 -172 -21 -49 -23 -70 -28 -290 l-6 -237
-79 87 c-417 461 -963 745 -1589 827 -146 19 -497 18 -647 -1z"/>
<path d="M4767 2559 c-87 -14 -171 -79 -204 -158 -8 -19 -23 -86 -34 -150
-147 -876 -831 -1545 -1705 -1666 -151 -21 -461 -16 -604 10 -306 56 -612 188
-857 372 -92 68 -241 209 -326 308 l-61 70 245 5 c265 6 282 9 358 69 85 67
122 203 86 311 -21 62 -80 132 -140 163 -40 22 -44 22 -645 22 l-605 0 -57
-27 c-76 -35 -138 -95 -179 -170 l-34 -63 -3 -604 -3 -605 26 -52 c108 -220
415 -213 517 11 21 47 23 67 26 290 l4 239 30 -34 c17 -19 78 -84 137 -143
414 -423 961 -685 1559 -748 165 -17 524 -7 678 20 372 63 692 189 996 389
522 345 912 888 1067 1483 43 167 74 364 66 418 -24 161 -172 266 -338 240z"/>
</g>
</svg>
