<?xml version="1.0" standalone="no"?>
<!DOCTYPE svg PUBLIC "-//W3C//DTD SVG 20010904//EN"
 "http://www.w3.org/TR/2001/REC-SVG-20010904/DTD/svg10.dtd">
<svg version="1.0" xmlns="http://www.w3.org/2000/svg"
 width="512.000000pt" height="512.000000pt" viewBox="0 0 512.000000 512.000000"
 preserveAspectRatio="xMidYMid meet">
<metadata>
Created by potrace 1.16, written by Peter Selinger 2001-2019
</metadata>
<g transform="translate(0.000000,512.000000) scale(0.100000,-0.100000)"
fill="currentColor" stroke="none">
<path d="M2160 5083 l-42 -38 -76 -311 -76 -311 -91 -33 c-49 -18 -125 -50
-167 -71 l-77 -39 -243 147 -243 148 -65 0 c-83 0 -80 2 -351 -272 -221 -222
-239 -249 -225 -325 3 -19 74 -148 157 -287 l151 -253 -35 -77 c-19 -42 -45
-105 -57 -141 l-23 -65 -311 -77 -311 -76 -37 -43 -38 -42 0 -357 0 -357 38
-43 37 -42 311 -76 312 -76 22 -66 c13 -36 43 -108 67 -162 l45 -96 -125 -209
c-161 -268 -161 -269 -152 -329 7 -48 14 -56 243 -286 129 -131 251 -245 270
-254 67 -32 102 -19 351 130 l228 137 80 -39 c45 -22 116 -52 160 -67 l79 -28
76 -311 76 -311 42 -38 43 -37 357 0 357 0 43 38 42 37 76 311 76 311 91 33
c49 18 120 48 157 66 37 19 73 34 79 34 6 0 104 -56 217 -124 114 -68 221
-131 239 -140 43 -21 88 -20 138 4 49 24 479 452 494 493 6 16 11 48 11 71 0
38 -18 74 -143 283 l-143 239 36 76 c21 42 50 112 65 155 l28 79 311 76 311
76 38 42 37 43 0 357 0 357 -37 43 -38 42 -311 76 -311 76 -28 79 c-15 44 -45
115 -67 159 l-38 80 141 234 c77 129 143 250 146 269 14 85 8 93 -240 342
-127 128 -245 239 -263 248 -17 8 -52 15 -77 15 -39 0 -71 -16 -286 -145
l-241 -144 -79 38 c-43 21 -114 51 -158 66 l-79 28 -76 311 -76 311 -42 38
-43 37 -357 0 -357 0 -43 -37z m655 -1510 c294 -82 532 -271 667 -529 54 -105
80 -179 103 -293 23 -111 16 -343 -13 -446 -81 -293 -270 -532 -528 -667 -181
-94 -312 -123 -523 -115 -249 9 -443 83 -632 241 -179 150 -306 366 -354 605
-23 111 -16 343 13 446 109 396 409 680 812 770 94 21 361 14 455 -12z"/>
</g>
</svg>
